<svg width="340" height="89" viewBox="0 0 340 89" fill="none" xmlns="http://www.w3.org/2000/svg">
<g clip-path="url(#clip0_18_660)">
<g clip-path="url(#clip1_18_660)">
<g clip-path="url(#clip2_18_660)">
<g clip-path="url(#clip3_18_660)">
<g clip-path="url(#clip4_18_660)">
<g clip-path="url(#clip5_18_660)">
<g clip-path="url(#clip6_18_660)">
<g clip-path="url(#clip7_18_660)">
<path d="M100.165 25.6234H120.515C120.803 25.6234 121.055 25.7312 121.271 25.947C121.487 26.1627 121.595 26.4144 121.595 26.702C121.595 27.0256 121.487 27.288 121.271 27.4894C121.055 27.6835 120.803 27.7806 120.515 27.7806H100.813L101.353 26.8638V43.5822L100.705 42.8272H118.086C118.374 42.8272 118.626 42.9351 118.842 43.1508C119.058 43.3665 119.166 43.6182 119.166 43.9058C119.166 44.2294 119.058 44.4918 118.842 44.6932C118.626 44.8873 118.374 44.9844 118.086 44.9844H100.813L101.353 44.3912V61.4871L101.137 61.2175H120.515C120.803 61.2175 121.055 61.3253 121.271 61.5411C121.487 61.7568 121.595 62.0085 121.595 62.2961C121.595 62.6197 121.487 62.8785 121.271 63.0727C121.055 63.274 120.803 63.3747 120.515 63.3747H100.165C99.8771 63.3747 99.6252 63.2668 99.4093 63.0511C99.1934 62.8354 99.0854 62.5837 99.0854 62.2961V26.702C99.0854 26.4144 99.1934 26.1627 99.4093 25.947C99.6252 25.7312 99.8771 25.6234 100.165 25.6234ZM153.388 25.4077C153.676 25.4077 153.928 25.4796 154.144 25.6234C154.36 25.7672 154.468 25.9829 154.468 26.2705C154.468 26.5222 154.378 26.7739 154.198 27.0256L141.297 44.7687L140.109 42.9351L152.579 25.8391C152.794 25.5515 153.064 25.4077 153.388 25.4077ZM126.993 25.4616C127.424 25.4616 127.73 25.6054 127.91 25.893L154.198 61.8107C154.378 62.0624 154.468 62.2781 154.468 62.4579C154.468 62.7815 154.349 63.0403 154.112 63.2345C153.881 63.4358 153.622 63.5365 153.334 63.5365C152.938 63.5365 152.651 63.3927 152.471 63.105L126.129 27.1874C125.985 27.0076 125.913 26.7919 125.913 26.5402C125.913 26.2166 126.021 25.9542 126.237 25.7528C126.453 25.5587 126.705 25.4616 126.993 25.4616ZM126.993 63.5365C126.633 63.5365 126.37 63.4286 126.204 63.2129C126.046 62.9972 125.967 62.7994 125.967 62.6197C125.967 62.4399 126.057 62.2062 126.237 61.9186L139.138 44.3372L140.217 46.1709L127.802 63.105C127.622 63.3927 127.352 63.5365 126.993 63.5365ZM162.565 25.6234H175.52C177.571 25.6234 179.359 26.0548 180.885 26.9177C182.418 27.7806 183.606 28.985 184.448 30.531C185.297 32.0771 185.722 33.8747 185.722 35.9241C185.722 37.9375 185.297 39.7532 184.448 41.3711C183.606 42.989 182.418 44.2653 180.885 45.2001C179.359 46.1349 177.571 46.6023 175.52 46.6023H163.536L163.741 46.2248V62.2961C163.741 62.5837 163.626 62.8354 163.396 63.0511C163.166 63.2668 162.903 63.3747 162.608 63.3747C162.248 63.3747 161.971 63.2668 161.777 63.0511C161.582 62.8354 161.485 62.5837 161.485 62.2961V26.702C161.485 26.4144 161.589 26.1627 161.798 25.947C162.021 25.7312 162.277 25.6234 162.565 25.6234ZM163.536 44.4451H175.52C177.168 44.4451 178.578 44.0784 179.752 43.3449C180.918 42.6043 181.828 41.5868 182.483 40.2925C183.131 38.9981 183.455 37.542 183.455 35.9241C183.455 34.2702 183.131 32.8393 182.483 31.6312C181.828 30.4304 180.918 29.4884 179.752 28.8053C178.578 28.1222 177.168 27.7806 175.52 27.7806H163.59L163.741 27.5109V44.6069L163.536 44.4451ZM194.617 25.6234H214.967C215.255 25.6234 215.507 25.7312 215.723 25.947C215.939 26.1627 216.047 26.4144 216.047 26.702C216.047 27.0256 215.939 27.288 215.723 27.4894C215.507 27.6835 215.255 27.7806 214.967 27.7806H195.265L195.805 26.8638V43.5822L195.157 42.8272H212.538C212.826 42.8272 213.078 42.9351 213.294 43.1508C213.51 43.3665 213.618 43.6182 213.618 43.9058C213.618 44.2294 213.51 44.4918 213.294 44.6932C213.078 44.8873 212.826 44.9844 212.538 44.9844H195.265L195.805 44.3912V61.4871L195.589 61.2175H214.967C215.255 61.2175 215.507 61.3253 215.723 61.5411C215.939 61.7568 216.047 62.0085 216.047 62.2961C216.047 62.6197 215.939 62.8785 215.723 63.0727C215.507 63.274 215.255 63.3747 214.967 63.3747H194.617C194.329 63.3747 194.078 63.2668 193.862 63.0511C193.646 62.8354 193.538 62.5837 193.538 62.2961V26.702C193.538 26.4144 193.646 26.1627 193.862 25.947C194.078 25.7312 194.329 25.6234 194.617 25.6234ZM251.457 25.6234C251.781 25.6234 252.033 25.7205 252.213 25.9146C252.393 26.1159 252.483 26.3604 252.483 26.6481V62.1882C252.483 62.5837 252.368 62.8785 252.137 63.0727C251.9 63.274 251.637 63.3747 251.349 63.3747C251.205 63.3747 251.054 63.3387 250.896 63.2668C250.73 63.1949 250.594 63.0871 250.486 62.9433L225.439 28.7513L226.195 28.3738V62.4579C226.195 62.7096 226.098 62.9253 225.904 63.105C225.702 63.2848 225.457 63.3747 225.169 63.3747C224.846 63.3747 224.594 63.2848 224.414 63.105C224.234 62.9253 224.144 62.7096 224.144 62.4579V26.702C224.144 26.3065 224.252 26.0297 224.468 25.8715C224.684 25.7061 224.9 25.6234 225.115 25.6234C225.259 25.6234 225.403 25.6485 225.547 25.6989C225.691 25.7564 225.817 25.8571 225.925 26.0009L250.863 59.9771L250.432 61.0557V26.6481C250.432 26.3604 250.54 26.1159 250.755 25.9146C250.971 25.7205 251.205 25.6234 251.457 25.6234ZM273.157 63.914C270.35 63.95 267.939 63.4826 265.924 62.5118C263.908 61.5411 261.965 60.1209 260.094 58.2513C260.022 58.1794 259.95 58.0787 259.878 57.9493C259.806 57.8271 259.77 57.6581 259.77 57.4423C259.77 57.1547 259.896 56.8743 260.148 56.601C260.4 56.335 260.67 56.2019 260.957 56.2019C261.281 56.2019 261.587 56.3637 261.875 56.6873C263.315 58.3412 264.995 59.5996 266.917 60.4625C268.846 61.3253 270.854 61.7568 272.941 61.7568C274.776 61.7568 276.413 61.4584 277.853 60.8615C279.292 60.2719 280.426 59.4306 281.254 58.3376C282.081 57.2374 282.495 55.9503 282.495 54.4762C282.459 52.6425 281.955 51.1684 280.984 50.0539C280.012 48.9393 278.76 48.0225 277.227 47.3034C275.701 46.5843 274.092 45.9192 272.401 45.308C271.069 44.8046 269.756 44.2833 268.461 43.744C267.165 43.2047 265.995 42.5468 264.952 41.7702C263.908 41.0007 263.081 40.03 262.469 38.8579C261.857 37.693 261.551 36.2477 261.551 34.5219C261.551 32.7602 262.026 31.1674 262.976 29.7437C263.933 28.3271 265.301 27.1946 267.079 26.346C268.864 25.5047 270.98 25.0841 273.427 25.0841C275.478 25.0841 277.475 25.4508 279.418 26.1843C281.361 26.9249 282.891 28.0323 284.006 29.5064C284.366 30.0097 284.546 30.3872 284.546 30.6389C284.546 30.8906 284.41 31.1423 284.136 31.3939C283.87 31.6456 283.575 31.7715 283.251 31.7715C282.963 31.7715 282.729 31.6636 282.549 31.4479C281.901 30.585 281.117 29.8371 280.196 29.2044C279.281 28.5788 278.249 28.097 277.097 27.759C275.946 27.4139 274.722 27.2413 273.427 27.2413C271.663 27.2413 270.062 27.5289 268.622 28.1042C267.183 28.6794 266.031 29.4956 265.168 30.5526C264.304 31.6168 263.872 32.922 263.872 34.468C263.872 36.1218 264.347 37.4773 265.297 38.5343C266.255 39.5986 267.471 40.4794 268.946 41.1769C270.422 41.8816 271.933 42.5216 273.481 43.0968C274.848 43.5642 276.205 44.0748 277.551 44.6285C278.904 45.1893 280.127 45.8833 281.221 46.7102C282.322 47.5371 283.197 48.5798 283.845 49.8382C284.492 51.0965 284.816 52.6785 284.816 54.584C284.816 56.2379 284.338 57.7659 283.38 59.1681C282.43 60.5703 281.092 61.7029 279.364 62.5657C277.637 63.4286 275.568 63.878 273.157 63.914ZM295.234 26.7559V62.2422C295.198 62.5657 295.072 62.8354 294.856 63.0511C294.633 63.2668 294.381 63.3747 294.101 63.3747C293.741 63.3747 293.46 63.2668 293.258 63.0511C293.064 62.8354 292.967 62.5657 292.967 62.2422V26.7559C292.967 26.4323 293.075 26.1627 293.291 25.947C293.507 25.7312 293.777 25.6234 294.101 25.6234C294.424 25.6234 294.694 25.7312 294.91 25.947C295.126 26.1627 295.234 26.4323 295.234 26.7559ZM339.378 44.499C339.378 47.3753 338.939 49.9999 338.061 52.3729C337.176 54.7458 335.923 56.7952 334.304 58.521C332.685 60.2467 330.777 61.577 328.582 62.5118C326.387 63.4466 323.976 63.914 321.349 63.914C318.722 63.914 316.311 63.4466 314.116 62.5118C311.921 61.577 310.014 60.2467 308.394 58.521C306.775 56.7952 305.526 54.7458 304.648 52.3729C303.763 49.9999 303.32 47.3753 303.32 44.499C303.32 41.6227 303.763 38.9981 304.648 36.6252C305.526 34.2523 306.775 32.2029 308.394 30.4771C310.014 28.7513 311.921 27.4211 314.116 26.4863C316.311 25.5515 318.722 25.0841 321.349 25.0841C323.976 25.0841 326.387 25.5515 328.582 26.4863C330.777 27.4211 332.685 28.7513 334.304 30.4771C335.923 32.2029 337.176 34.2523 338.061 36.6252C338.939 38.9981 339.378 41.6227 339.378 44.499ZM337.111 44.499C337.111 41.0475 336.438 38.0274 335.092 35.4387C333.739 32.8501 331.886 30.8367 329.532 29.3985C327.172 27.9604 324.444 27.2413 321.349 27.2413C318.29 27.2413 315.573 27.9604 313.198 29.3985C310.823 30.8367 308.963 32.8501 307.617 35.4387C306.264 38.0274 305.587 41.0475 305.587 44.499C305.587 47.9506 306.264 50.9707 307.617 53.5594C308.963 56.148 310.823 58.1614 313.198 59.5996C315.573 61.0377 318.29 61.7568 321.349 61.7568C324.444 61.7568 327.172 61.0377 329.532 59.5996C331.886 58.1614 333.739 56.148 335.092 53.5594C336.438 50.9707 337.111 47.9506 337.111 44.499Z" fill="#233565"/>
</g>
</g>
</g>
</g>
<g clip-path="url(#clip8_18_660)">
<g clip-path="url(#clip9_18_660)">
<path d="M85.8482 3.9433H4.66187V85.0567H85.8482V3.9433Z" fill="#5921B5"/>
<path opacity="0.5" d="M89.8992 -0.104107H8.71289V81.0093H89.8992V-0.104107Z" fill="#5921B5"/>
<g clip-path="url(#clip10_18_660)">
<g clip-path="url(#clip11_18_660)">
<path d="M52.9878 76.1353C44.0399 77.6272 34.5431 74.9664 27.5112 69.2829C20.8268 63.8802 16.6597 55.4125 16.9581 46.7758C17.2475 38.4125 21.5175 30.0574 28.6306 25.4806C35.9012 20.8028 45.8623 20.8251 53.0881 25.5875C59.8488 30.0433 63.5857 38.7231 61.3022 46.6209C60.1216 50.7056 57.5115 54.4698 53.797 56.6294C49.9308 58.8776 45.0406 59.3365 40.8502 57.7402C37.0827 56.3047 33.8706 53.2272 32.6825 49.3289C31.4637 45.3311 32.481 40.7005 35.441 37.7092C38.3031 34.8165 42.9015 33.7802 46.6209 35.5827C50.1522 37.2933 52.3286 41.504 51.0211 45.3203C50.3163 47.3772 48.6506 49.14 46.5247 49.7248C44.2944 50.3387 41.7374 49.5418 40.3569 47.6597C39.0062 45.819 39.1173 43.1011 40.8519 41.5388C41.7258 40.7518 43.0068 40.355 44.1551 40.698C44.495 40.799 46.0065 41.1668 45.8614 41.6995C45.9336 41.1594 44.7496 41.0202 44.4063 40.9258C43.3368 40.6309 42.1403 40.9291 41.3228 41.6746C39.881 42.9884 39.6687 45.3684 40.8278 46.9266C42.0027 48.5055 44.2289 49.1806 46.0911 48.5593C47.9873 47.9256 49.304 46.0634 49.6107 44.1324C50.2293 40.2366 46.4501 36.8767 42.7099 37.034C38.7517 37.2005 35.6226 40.6566 35.1558 44.4654C34.2802 51.6069 42.4521 56.467 48.8082 54.85C55.8939 53.0466 59.4707 44.6013 57.7345 37.8972C55.7944 30.4045 47.8754 25.7498 40.4249 25.8501C32.3119 25.9586 25.2685 31.8393 22.2214 39.1133C18.8734 47.1063 20.4023 56.6501 25.7046 63.4379C31.0815 70.3209 39.7417 74.3004 48.3828 74.7568C53.1636 75.0095 58.1242 74.312 62.4813 72.2667C66.5896 70.3383 69.8663 67.0827 72.4109 63.3749C77.6368 55.7588 79.5928 46.0303 77.4976 37.0125C73.8991 21.5326 58.3174 10.2119 42.4678 11.5704C26.9035 12.9041 13.6292 26.2013 12.3001 41.7459C11.539 50.6427 14.6026 59.7714 20.5317 66.4457C26.4002 73.0529 34.9783 77.1111 43.806 77.5071C48.8786 77.7349 54.0068 76.7814 58.6499 74.7245C56.6003 75.4237 54.5101 76.1286 52.3303 76.2471C52.7498 76.2239 53.1445 76.0433 53.5673 76.0466C52.0832 76.035 50.6944 76.6895 49.2211 76.7673C50.0784 76.7218 50.9647 76.5428 51.7872 76.2985C52.0666 76.2148 52.9961 75.8197 53.2423 76.098C53.0707 75.9033 52.1164 76.2488 51.9049 76.2993C51.1372 76.4824 50.2857 76.6737 49.4988 76.7218C49.852 76.7002 53.2597 76.1328 53.2548 76.0963C53.2614 76.1502 49.92 76.5992 49.43 76.7334C50.022 76.571 50.6778 76.5304 51.2831 76.4293C51.5252 76.3896 53.0773 75.9398 53.2514 76.0963C53.2249 76.0723 53.0185 76.1303 52.9878 76.1353C55.0523 75.8122 44.1195 77.6139 52.9878 76.1353Z" fill="white"/>
</g>
</g>
</g>
</g>
</g>
</g>
</g>
</g>
<defs>
<clipPath id="clip0_18_660">
<rect width="340" height="89" fill="white"/>
</clipPath>
<clipPath id="clip1_18_660">
<rect width="338.778" height="89.2082" fill="white" transform="translate(0.61084 -0.104109)"/>
</clipPath>
<clipPath id="clip2_18_660">
<rect width="338.778" height="89.2082" fill="white" transform="translate(0.61084 -0.104109)"/>
</clipPath>
<clipPath id="clip3_18_660">
<rect width="338.778" height="89.2082" fill="white" transform="translate(0.61084 -0.104109)"/>
</clipPath>
<clipPath id="clip4_18_660">
<rect width="240.314" height="38.8318" fill="white" transform="translate(99.0747 25.0841)"/>
</clipPath>
<clipPath id="clip5_18_660">
<rect width="240.314" height="38.8318" fill="white" transform="translate(99.0747 25.0841)"/>
</clipPath>
<clipPath id="clip6_18_660">
<rect width="240.314" height="38.8318" fill="white" transform="translate(99.0747 25.0841)"/>
</clipPath>
<clipPath id="clip7_18_660">
<rect width="240.314" height="38.8318" fill="white" transform="translate(99.0747 25.0841)"/>
</clipPath>
<clipPath id="clip8_18_660">
<rect width="89.2884" height="89.2082" fill="white" transform="translate(0.61084 -0.104109)"/>
</clipPath>
<clipPath id="clip9_18_660">
<rect width="89.2884" height="89.2082" fill="white" transform="translate(0.61084 -0.104109)"/>
</clipPath>
<clipPath id="clip10_18_660">
<rect width="66.1387" height="66.0802" fill="white" transform="translate(12.1855 11.4599)"/>
</clipPath>
<clipPath id="clip11_18_660">
<rect width="66.1387" height="66.0802" fill="white" transform="translate(12.1855 11.4599)"/>
</clipPath>
</defs>
</svg>
