<svg width="90" height="89" viewBox="0 0 90 89" fill="none" xmlns="http://www.w3.org/2000/svg">
<g clip-path="url(#clip0_18_710)">
<g clip-path="url(#clip1_18_710)">
<path d="M85.8483 3.9433H4.662V85.0567H85.8483V3.9433Z" fill="#3521B5"/>
<path opacity="0.5" d="M89.8994 -0.104107H8.71305V81.0093H89.8994V-0.104107Z" fill="#3521B5"/>
<g clip-path="url(#clip2_18_710)">
<g clip-path="url(#clip3_18_710)">
<path d="M52.988 76.1353C44.0401 77.6272 34.5433 74.9664 27.5115 69.2829C20.8271 63.8802 16.6599 55.4125 16.9584 46.7758C17.2477 38.4125 21.5177 30.0574 28.6308 25.4806C35.9014 20.8028 45.8625 20.8251 53.0883 25.5875C59.849 30.0433 63.5859 38.7231 61.3025 46.6209C60.1218 50.7056 57.5117 54.4698 53.7972 56.6294C49.931 58.8776 45.0408 59.3365 40.8504 57.7402C37.0829 56.3047 33.8709 53.2272 32.6827 49.3289C31.4639 45.3311 32.4813 40.7005 35.4412 37.7092C38.3034 34.8165 42.9017 33.7802 46.6212 35.5827C50.1524 37.2933 52.3289 41.504 51.0213 45.3203C50.3166 47.3772 48.6509 49.14 46.525 49.7248C44.2946 50.3387 41.7376 49.5418 40.3571 47.6597C39.0065 45.819 39.1176 43.1011 40.8521 41.5388C41.726 40.7518 43.007 40.355 44.1553 40.698C44.4953 40.799 46.0068 41.1668 45.8617 41.6995C45.9338 41.1594 44.7498 41.0202 44.4066 40.9258C43.337 40.6309 42.1406 40.9291 41.323 41.6746C39.8812 42.9884 39.6689 45.3684 40.8281 46.9266C42.0029 48.5055 44.2291 49.1806 46.0913 48.5593C47.9876 47.9256 49.3042 46.0634 49.611 44.1324C50.2295 40.2366 46.4504 36.8767 42.7102 37.034C38.7519 37.2005 35.6228 40.6566 35.156 44.4654C34.2805 51.6069 42.4523 56.467 48.8084 54.85C55.8941 53.0466 59.4709 44.6013 57.7348 37.8972C55.7946 30.4045 47.8756 25.7498 40.4251 25.8501C32.3121 25.9586 25.2687 31.8393 22.2217 39.1133C18.8737 47.1063 20.4026 56.6501 25.7048 63.4378C31.0817 70.3209 39.7419 74.3004 48.383 74.7569C53.1638 75.0095 58.1244 74.312 62.4815 72.2667C66.5898 70.3383 69.8665 67.0827 72.4111 63.3749C77.6371 55.7588 79.593 46.0303 77.4978 37.0125C73.8994 21.5326 58.3176 10.2119 42.4681 11.5704C26.9037 12.9041 13.6294 26.2013 12.3003 41.7459C11.5392 50.6427 14.6028 59.7714 20.5319 66.4457C26.4004 73.0529 34.9786 77.1111 43.8063 77.5071C48.8789 77.7349 54.007 76.7814 58.6501 74.7245C56.6005 75.4237 54.5103 76.1286 52.3305 76.2471C52.7501 76.2239 53.1447 76.0433 53.5676 76.0466C52.0834 76.035 50.6947 76.6895 49.2213 76.7673C50.0786 76.7218 50.9649 76.5428 51.7874 76.2985C52.0669 76.2148 52.9963 75.8197 53.2426 76.098C53.0709 75.9033 52.1166 76.2488 51.9052 76.2993C51.1374 76.4824 50.2859 76.6737 49.4991 76.7218C49.8523 76.7002 53.26 76.1328 53.255 76.0963C53.2616 76.1502 49.9202 76.5992 49.4302 76.7334C50.0222 76.571 50.6781 76.5304 51.2833 76.4294C51.5254 76.3896 53.0776 75.9398 53.2517 76.0963C53.2251 76.0723 53.0187 76.1303 52.988 76.1353C44.1197 77.6139 55.0525 75.8122 52.988 76.1353Z" fill="white"/>
</g>
</g>
</g>
</g>
<defs>
<clipPath id="clip0_18_710">
<rect width="89.2884" height="89.2082" fill="white" transform="translate(0.61095 -0.104109)"/>
</clipPath>
<clipPath id="clip1_18_710">
<rect width="89.2884" height="89.2082" fill="white" transform="translate(0.61095 -0.104109)"/>
</clipPath>
<clipPath id="clip2_18_710">
<rect width="66.1387" height="66.0802" fill="white" transform="translate(12.1858 11.4599)"/>
</clipPath>
<clipPath id="clip3_18_710">
<rect width="66.1387" height="66.0802" fill="white" transform="translate(12.1858 11.4599)"/>
</clipPath>
</defs>
</svg>
